<svg width="80" height="80" viewBox="0 0 80 80" fill="none" xmlns="http://www.w3.org/2000/svg">
  <!-- Background -->
  <rect width="80" height="80" fill="white"/>
  
  <!-- QR Code Pattern -->
  <!-- Top-left corner -->
  <rect x="4" y="4" width="20" height="20" fill="black"/>
  <rect x="8" y="8" width="12" height="12" fill="white"/>
  <rect x="10" y="10" width="8" height="8" fill="black"/>
  
  <!-- Top-right corner -->
  <rect x="56" y="4" width="20" height="20" fill="black"/>
  <rect x="60" y="8" width="12" height="12" fill="white"/>
  <rect x="62" y="10" width="8" height="8" fill="black"/>
  
  <!-- Bottom-left corner -->
  <rect x="4" y="56" width="20" height="20" fill="black"/>
  <rect x="8" y="60" width="12" height="12" fill="white"/>
  <rect x="10" y="62" width="8" height="8" fill="black"/>
  
  <!-- Center pattern -->
  <rect x="32" y="32" width="16" height="16" fill="black"/>
  <rect x="36" y="36" width="8" height="8" fill="white"/>
  <rect x="38" y="38" width="4" height="4" fill="black"/>
  
  <!-- Additional pattern elements -->
  <rect x="28" y="8" width="4" height="4" fill="black"/>
  <rect x="48" y="8" width="4" height="4" fill="black"/>
  <rect x="8" y="28" width="4" height="4" fill="black"/>
  <rect x="8" y="48" width="4" height="4" fill="black"/>
  <rect x="68" y="28" width="4" height="4" fill="black"/>
  <rect x="68" y="48" width="4" height="4" fill="black"/>
  <rect x="28" y="68" width="4" height="4" fill="black"/>
  <rect x="48" y="68" width="4" height="4" fill="black"/>
  
  <!-- Random pattern elements -->
  <rect x="16" y="16" width="2" height="2" fill="black"/>
  <rect x="20" y="16" width="2" height="2" fill="black"/>
  <rect x="16" y="20" width="2" height="2" fill="black"/>
  <rect x="20" y="20" width="2" height="2" fill="black"/>
  
  <rect x="60" y="16" width="2" height="2" fill="black"/>
  <rect x="64" y="16" width="2" height="2" fill="black"/>
  <rect x="60" y="20" width="2" height="2" fill="black"/>
  <rect x="64" y="20" width="2" height="2" fill="black"/>
  
  <rect x="16" y="60" width="2" height="2" fill="black"/>
  <rect x="20" y="60" width="2" height="2" fill="black"/>
  <rect x="16" y="64" width="2" height="2" fill="black"/>
  <rect x="20" y="64" width="2" height="2" fill="black"/>
  
  <!-- Center area patterns -->
  <rect x="24" y="24" width="2" height="2" fill="black"/>
  <rect x="28" y="24" width="2" height="2" fill="black"/>
  <rect x="24" y="28" width="2" height="2" fill="black"/>
  <rect x="28" y="28" width="2" height="2" fill="black"/>
  
  <rect x="52" y="24" width="2" height="2" fill="black"/>
  <rect x="56" y="24" width="2" height="2" fill="black"/>
  <rect x="52" y="28" width="2" height="2" fill="black"/>
  <rect x="56" y="28" width="2" height="2" fill="black"/>
  
  <rect x="24" y="52" width="2" height="2" fill="black"/>
  <rect x="28" y="52" width="2" height="2" fill="black"/>
  <rect x="24" y="56" width="2" height="2" fill="black"/>
  <rect x="28" y="56" width="2" height="2" fill="black"/>
  
  <rect x="52" y="52" width="2" height="2" fill="black"/>
  <rect x="56" y="52" width="2" height="2" fill="black"/>
  <rect x="52" y="56" width="2" height="2" fill="black"/>
  <rect x="56" y="56" width="2" height="2" fill="black"/>
</svg>
